<svg width="200" height="80" viewBox="0 0 200 80" fill="none" xmlns="http://www.w3.org/2000/svg">
<rect x="0.5" y="0.5" width="199" height="79" stroke="#DDDDDD"/>
<path fill-rule="evenodd" clip-rule="evenodd" d="M165.752 49.043V30.9563H175.179C177.97 30.9563 179.8 31.7689 181.06 33.0863C182.083 34.1689 182.684 35.7849 182.684 37.3502C182.685 39.8699 181.121 42.0265 178.719 43.0785L182.479 49.043H177.558L174.425 43.7688H170.042V49.043H165.752ZM170.042 34.5898V40.1347H175.631C177.124 40.1347 178.359 38.8472 178.359 37.3502C178.359 36.6847 178.117 35.8812 177.669 35.4271C176.976 34.6776 176.106 34.5904 175.328 34.5904H170.042V34.5898ZM33.1309 29.272L27.7552 34.6483V19L48.737 40.0221L27.7552 61V45.3998L33.1309 50.7723V40.0215V29.2713V29.272ZM38.506 45.3998V34.6483L33.1309 40.0215L38.506 45.3991V45.3998ZM60.7252 34.5898V40.1347H66.0052C66.7534 40.1347 67.5972 40.0156 68.2608 39.3839C68.7422 38.9044 69.0382 38.0398 69.0382 37.3762C69.0382 36.684 68.7683 35.8805 68.3187 35.4024C67.6571 34.7088 66.7879 34.5891 66.0052 34.5891H60.7252V34.5898ZM56.4307 49.043V30.9563H65.855C68.6199 30.9563 70.4812 31.737 71.7687 33.1182C72.7914 34.2613 73.3581 35.8461 73.3581 37.3495C73.3581 39.0567 72.6418 40.7638 71.5013 41.875C70.2711 43.046 68.5288 43.7681 65.8543 43.7681H60.7245V49.0424H56.4301L56.4307 49.043ZM88.0846 41.8177H80.8495V45.3523H91.8566V49.043H76.5596V30.9563H91.8566V34.677H80.8495V38.1257H88.0846V41.8177ZM109.446 30.9563H113.772V49.043H110.045L100.079 38.4282L100.049 49.043H95.7275V30.9563H99.4202L109.447 41.6258V30.9563H109.446ZM116.758 30.9563H136.146L134.418 34.677H128.169V49.043H123.875V34.677H116.758V30.9563ZM140.474 43.0258H146.601L143.625 36.0907L140.474 43.0258ZM145.488 30.9563L153.749 49.043H149.032L148.07 46.4166L139.031 46.4205L137.918 49.043H133.384L141.794 30.9563H145.488ZM156.672 30.9563H160.966V49.043H156.672V30.9563Z" fill="#194B92"/>
<path fill-rule="evenodd" clip-rule="evenodd" d="M22.3799 40.0217L27.7537 45.3994V34.6479L22.3799 40.0211V40.0217ZM27.7537 45.3994L22.3799 50.7719V40.0211L17.0009 45.3987V34.6453L22.3799 40.0204V29.2703L33.1281 40.0204L27.7543 45.3981L27.7537 45.3994Z" fill="#5DB139"/>
</svg>
